# Blender v2.74 (sub 0) OBJ File: ''
# www.blender.org
mtllib simple-spaceship.mtl
o Box
v 3.128600 0.500000 1.015350
v 3.128600 0.500000 -1.015350
v 3.128600 -0.500000 1.015350
v 3.128600 -0.500000 -1.015350
v -3.128600 0.500000 -1.015350
v -3.128600 0.500000 1.015350
v -3.128600 -0.500000 -1.015350
v -3.128600 -0.500000 1.015350
vt 0.000000 1.000000
vt 0.000000 0.000000
vt 1.000000 0.000000
vt 1.000000 1.000000
vn 1.000000 0.000000 0.000000
vn -1.000000 0.000000 0.000000
vn 0.000000 1.000000 0.000000
vn 0.000000 -1.000000 0.000000
vn 0.000000 0.000000 1.000000
vn 0.000000 0.000000 -1.000000
usemtl b0b0b0
s 1
f 1/1/1 3/2/1 4/3/1 2/4/1
f 5/1/2 7/2/2 8/3/2 6/4/2
f 5/1/3 6/2/3 1/3/3 2/4/3
f 8/1/4 7/2/4 4/3/4 3/4/4
f 6/1/5 8/2/5 3/3/5 1/4/5
f 2/1/6 4/2/6 7/3/6 5/4/6
o Box2
v 2.904047 0.802829 0.500000
v 2.904047 0.802829 -0.500000
v 1.703577 0.452800 0.500000
v 1.703577 0.452800 -0.500000
v -2.478150 1.073906 -0.500000
v -2.478150 1.073906 0.500000
v -0.694845 0.269503 -0.500000
v -0.694845 0.269503 0.500000
vt 0.000000 1.000000
vt 0.000000 0.000000
vt 1.000000 0.000000
vt 1.000000 1.000000
vn 0.683600 -0.729900 -0.000000
vn -0.674500 -0.738300 0.000000
vn -0.274700 0.961500 0.000000
vn -0.390500 -0.920600 -0.000000
vn -0.000000 0.000000 1.000000
vn 0.000000 0.000000 -1.000000
usemtl b0b0b0
s 1
f 9/5/7 11/6/7 12/7/7 10/8/7
f 13/5/8 15/6/8 16/7/8 14/8/8
f 13/5/9 14/6/9 9/7/9 10/8/9
f 16/5/10 15/6/10 12/7/10 11/8/10
f 14/5/11 16/6/11 11/7/11 9/8/11
f 10/5/12 12/6/12 15/7/12 13/8/12
o Box1
v -1.188501 0.098474 -0.520566
v -0.404158 0.100333 -0.873272
v -1.188035 -0.096825 -0.520558
v -0.403692 -0.094966 -0.873265
v -1.825765 0.096825 -4.034642
v -2.610108 0.094966 -3.681936
v -1.825298 -0.098474 -4.034635
v -2.609642 -0.100333 -3.681928
vt 0.000000 1.000000
vt 0.000000 0.000000
vt 1.000000 0.000000
vt 1.000000 1.000000
vn 0.410100 0.001000 0.912000
vn -0.410100 -0.001000 -0.912000
vn -0.002400 1.000000 -0.000000
vn 0.002400 -1.000000 0.000000
vn -0.912000 -0.002200 0.410100
vn 0.912000 0.002200 -0.410100
usemtl b0b0b0
s 1
f 17/9/13 19/10/13 20/11/13 18/12/13
f 21/9/14 23/10/14 24/11/14 22/12/14
f 21/9/15 22/10/15 17/11/15 18/12/15
f 24/9/16 23/10/16 20/11/16 19/12/16
f 22/9/17 24/10/17 19/11/17 17/12/17
f 18/9/18 20/10/18 23/11/18 21/12/18
o Box3
v -2.532780 -0.061210 3.707581
v -1.739621 0.062669 4.016049
v -2.502649 -0.254172 3.707600
v -1.709490 -0.130293 4.016068
v -0.511151 0.254172 0.780400
v -1.304310 0.130293 0.471932
v -0.481020 0.061210 0.780419
v -1.274179 -0.062669 0.471951
v -2.121135 -0.095752 3.861825
v -0.892665 0.095752 0.626175
v -1.521965 0.096481 2.243990
v -1.491835 -0.096481 2.244009
v -1.903479 -0.061940 2.089766
v -1.110320 0.061940 2.398234
v -2.517715 -0.157691 3.707590
v -2.106070 -0.192233 3.861834
v -1.724555 -0.033812 4.016059
v -2.136200 0.000729 3.861815
v -0.496086 0.157691 0.780410
v -0.877600 -0.000729 0.626185
v -1.289244 0.033812 0.471941
v -0.907730 0.192233 0.626166
v -1.918545 0.034541 2.089756
v -1.125386 0.158421 2.398225
v -1.095255 -0.034541 2.398244
v -1.888414 -0.158421 2.089775
v -2.311892 -0.174962 3.784712
v -1.915313 -0.113022 3.938946
v -1.930378 -0.016541 3.938937
v -2.326957 -0.078481 3.784703
v -0.686843 0.078481 0.703297
v -1.083422 0.016541 0.549063
v -1.098487 0.113022 0.549054
v -0.701908 0.174962 0.703288
v -1.413137 0.113387 1.357961
v -2.027372 0.017635 2.975786
v -1.630793 0.079575 3.130020
v -1.016558 0.175327 1.512195
v -0.986428 -0.017635 1.512214
v -1.600663 -0.113387 3.130039
v -1.997242 -0.175327 2.975805
v -1.383007 -0.079575 1.357980
v -1.588829 -0.062304 1.280858
v -2.203064 -0.158056 2.898683
v -2.218130 -0.061575 2.898673
v -1.603895 0.034177 1.280849
v -1.409905 -0.034177 3.207151
v -0.795670 0.061575 1.589327
v -0.810736 0.158056 1.589317
v -1.424971 0.062304 3.207142
v -2.319425 -0.126722 3.784708
v -2.510182 -0.205932 3.707595
v -2.304359 -0.223202 3.784717
v -2.113602 -0.143992 3.861829
v -1.907780 -0.161263 3.938951
v -1.717023 -0.082053 4.016064
v -1.922845 -0.064782 3.938941
v -1.732088 0.014428 4.016054
v -1.937910 0.031699 3.938932
v -2.128668 -0.047511 3.861820
v -2.334490 -0.030241 3.784698
v -2.525247 -0.109451 3.707586
v -0.694375 0.126722 0.703292
v -0.488553 0.109451 0.780414
v -0.679310 0.030241 0.703302
v -0.885132 0.047511 0.626180
v -1.075890 -0.031699 0.549068
v -1.281712 -0.014428 0.471946
v -1.090955 0.064782 0.549058
v -1.296777 0.082053 0.471936
v -1.106020 0.161263 0.549049
v -0.900198 0.143992 0.626171
v -0.709440 0.223202 0.703283
v -0.503618 0.205932 0.780405
v -1.214848 0.144357 1.435078
v -1.611427 0.082417 1.280844
v -1.720255 0.065511 2.166873
v -2.225662 -0.013335 2.898669
v -1.829083 0.048605 3.052903
v -1.432503 0.110545 3.207137
v -1.323675 0.127451 2.321108
v -0.818268 0.206296 1.589312
v -1.184717 -0.048605 1.435097
v -0.788138 0.013335 1.589331
v -1.293545 -0.065511 2.321126
v -1.402373 -0.082417 3.207156
v -1.798952 -0.144357 3.052922
v -2.195532 -0.206296 2.898688
v -1.690125 -0.127451 2.166892
v -1.581297 -0.110545 1.280863
v -1.596362 -0.014064 1.280854
v -1.895947 -0.110180 2.089771
v -2.210597 -0.109816 2.898678
v -1.911012 -0.013699 2.089761
v -1.417438 0.014064 3.207146
v -1.102788 0.013699 2.398239
v -0.803203 0.109816 1.589322
v -1.117853 0.110180 2.398229
vt 0.250000 0.250000
vt 0.250000 0.500000
vt 0.000000 0.500000
vt 0.000000 0.250000
vt 0.000000 0.000000
vt 0.250000 0.000000
vt 0.500000 0.000000
vt 0.500000 0.250000
vt 0.500000 0.500000
vt 0.750000 0.250000
vt 0.750000 0.000000
vt 1.000000 0.000000
vt 1.000000 0.250000
vt 1.000000 0.500000
vt 0.750000 0.500000
vt 0.750000 0.750000
vt 1.000000 0.750000
vt 1.000000 1.000000
vt 0.750000 1.000000
vt 0.500000 1.000000
vt 0.500000 0.750000
vt 0.250000 0.750000
vt 0.250000 1.000000
vt 0.000000 1.000000
vt 0.000000 0.750000
vn -0.354400 -0.055200 0.933500
vn -0.902800 -0.140900 0.406400
vn -0.902700 -0.140900 0.406400
vn -0.648000 -0.685500 0.331900
vn -0.141500 -0.737700 0.660100
vn 0.416900 -0.519200 0.746100
vn 0.401500 0.062800 0.913700
vn 0.238800 0.621700 0.746000
vn -0.359700 0.659600 0.660000
vn -0.826200 0.455400 0.331800
vn 0.354400 0.055200 -0.933500
vn 0.902800 0.140900 -0.406400
vn 0.826200 -0.455400 -0.331800
vn 0.359700 -0.659600 -0.660000
vn -0.238800 -0.621700 -0.746000
vn -0.401500 -0.062800 -0.913700
vn -0.416900 0.519200 -0.746100
vn 0.141500 0.737700 -0.660100
vn 0.648000 0.685500 -0.331900
vn 0.902700 0.140900 -0.406400
vn -0.154300 0.988000 -0.000100
vn -0.761200 0.596800 -0.253700
vn 0.543100 0.800500 0.253600
vn 0.154300 -0.988000 0.000100
vn 0.761200 -0.596800 0.253700
vn -0.543100 -0.800500 -0.253600
vn -0.922300 -0.144000 -0.358700
vn 0.922300 0.144000 0.358700
usemtl b0b0b0
s 1
f 51/13/19 75/14/19 39/15/20 76/16/21
f 51/13/19 76/16/21 27/17/22 77/18/23
f 51/13/19 77/18/23 40/19/23 78/20/19
f 51/13/19 78/20/19 33/21/19 75/14/19
f 52/22/19 78/20/19 40/19/23 79/23/23
f 52/22/19 79/23/23 28/24/24 80/25/25
f 52/22/19 80/25/25 41/26/25 81/27/19
f 52/22/19 81/27/19 33/21/19 78/20/19
f 53/28/19 81/27/19 41/26/25 82/29/25
f 53/28/19 82/29/25 26/30/26 83/31/27
f 53/28/19 83/31/27 42/32/27 84/33/19
f 53/28/19 84/33/19 33/21/19 81/27/19
f 54/34/19 84/33/19 42/32/27 85/35/27
f 54/34/19 85/35/27 25/36/28 86/37/20
f 54/34/19 86/37/20 39/15/20 75/14/19
f 54/34/19 75/14/19 33/21/19 84/33/19
f 55/13/29 87/14/29 43/15/30 88/16/30
f 55/13/29 88/16/30 31/17/31 89/18/32
f 55/13/29 89/18/32 44/19/32 90/20/29
f 55/13/29 90/20/29 34/21/29 87/14/29
f 56/22/29 90/20/29 44/19/32 91/23/32
f 56/22/29 91/23/32 32/24/33 92/25/34
f 56/22/29 92/25/34 45/26/34 93/27/29
f 56/22/29 93/27/29 34/21/29 90/20/29
f 57/28/29 93/27/29 45/26/34 94/29/34
f 57/28/29 94/29/34 30/30/35 95/31/36
f 57/28/29 95/31/36 46/32/36 96/33/29
f 57/28/29 96/33/29 34/21/29 93/27/29
f 58/34/29 96/33/29 46/32/36 97/35/36
f 58/34/29 97/35/36 29/36/37 98/37/38
f 58/34/29 98/37/38 43/15/30 87/14/29
f 58/34/29 87/14/29 34/21/29 96/33/29
f 59/13/39 99/14/39 46/15/36 95/16/36
f 59/13/39 95/16/36 30/17/35 100/18/40
f 59/13/39 100/18/40 47/19/40 101/20/39
f 59/13/39 101/20/39 35/21/39 99/14/39
f 60/22/39 101/20/39 47/19/40 102/23/40
f 60/22/39 102/23/40 25/24/28 85/25/27
f 60/22/39 85/25/27 42/26/27 103/27/39
f 60/22/39 103/27/39 35/21/39 101/20/39
f 61/28/39 103/27/39 42/26/27 83/29/27
f 61/28/39 83/29/27 26/30/26 104/31/41
f 61/28/39 104/31/41 48/32/41 105/33/39
f 61/28/39 105/33/39 35/21/39 103/27/39
f 62/34/39 105/33/39 48/32/41 106/35/41
f 62/34/39 106/35/41 29/36/37 97/37/36
f 62/34/39 97/37/36 46/15/36 99/14/39
f 62/34/39 99/14/39 35/21/39 105/33/39
f 63/13/42 107/14/42 44/15/32 89/16/32
f 63/13/42 89/16/32 31/17/31 108/18/43
f 63/13/42 108/18/43 49/19/43 109/20/42
f 63/13/42 109/20/42 36/21/42 107/14/42
f 64/22/42 109/20/42 49/19/43 110/23/43
f 64/22/42 110/23/43 28/24/24 79/25/23
f 64/22/42 79/25/23 40/26/23 111/27/42
f 64/22/42 111/27/42 36/21/42 109/20/42
f 65/28/42 111/27/42 40/26/23 77/29/23
f 65/28/42 77/29/23 27/30/22 112/31/44
f 65/28/42 112/31/44 50/32/44 113/33/42
f 65/28/42 113/33/42 36/21/42 111/27/42
f 66/34/42 113/33/42 50/32/44 114/35/44
f 66/34/42 114/35/44 32/36/33 91/37/32
f 66/34/42 91/37/32 44/15/32 107/14/42
f 66/34/42 107/14/42 36/21/42 113/33/42
f 67/13/45 115/14/45 45/15/34 92/16/34
f 67/13/45 92/16/34 32/17/33 114/18/44
f 67/13/45 114/18/44 50/19/44 116/20/45
f 67/13/45 116/20/45 37/21/45 115/14/45
f 68/22/45 116/20/45 50/19/44 112/23/44
f 68/22/45 112/23/44 27/24/22 76/25/21
f 68/22/45 76/25/21 39/26/20 117/27/45
f 68/22/45 117/27/45 37/21/45 116/20/45
f 69/28/45 117/27/45 39/26/20 86/29/20
f 69/28/45 86/29/20 25/30/28 102/31/40
f 69/28/45 102/31/40 47/32/40 118/33/45
f 69/28/45 118/33/45 37/21/45 117/27/45
f 70/34/45 118/33/45 47/32/40 100/35/40
f 70/34/45 100/35/40 30/36/35 94/37/34
f 70/34/45 94/37/34 45/15/34 115/14/45
f 70/34/45 115/14/45 37/21/45 118/33/45
f 71/13/46 119/14/46 41/15/25 80/16/25
f 71/13/46 80/16/25 28/17/24 110/18/43
f 71/13/46 110/18/43 49/19/43 120/20/46
f 71/13/46 120/20/46 38/21/46 119/14/46
f 72/22/46 120/20/46 49/19/43 108/23/43
f 72/22/46 108/23/43 31/24/31 88/25/30
f 72/22/46 88/25/30 43/26/30 121/27/46
f 72/22/46 121/27/46 38/21/46 120/20/46
f 73/28/46 121/27/46 43/26/30 98/29/38
f 73/28/46 98/29/38 29/30/37 106/31/41
f 73/28/46 106/31/41 48/32/41 122/33/46
f 73/28/46 122/33/46 38/21/46 121/27/46
f 74/34/46 122/33/46 48/32/41 104/35/41
f 74/34/46 104/35/41 26/36/26 82/37/25
f 74/34/46 82/37/25 41/15/25 119/14/46
f 74/34/46 119/14/46 38/21/46 122/33/46
