{"extensionsUsed" : ["KHR_materials_pbrSpecularGlossiness"], "accessors" : [{"bufferView" : 0, "byteOffset" : 0, "componentType" : 5123, "count" : 6, "type" : "SCALAR", "max" : [3], "min" : [0]}, {"bufferView" : 1, "byteOffset" : 0, "componentType" : 5126, "count" : 4, "type" : "VEC3", "max" : [0.5, 0.5, 0], "min" : [-0.5, -0.5, 0]}, {"bufferView" : 1, "byteOffset" : 12, "componentType" : 5126, "count" : 4, "type" : "VEC3", "max" : [0, 0, 1], "min" : [0, 0, 1]}, {"bufferView" : 1, "byteOffset" : 24, "componentType" : 5126, "count" : 4, "type" : "VEC2", "max" : [1, 1], "min" : [0, 0]}, {"bufferView" : 0, "byteOffset" : 12, "componentType" : 5123, "count" : 23958, "type" : "SCALAR", "max" : [4784], "min" : [0]}, {"bufferView" : 5, "byteOffset" : 0, "componentType" : 5126, "count" : 4785, "type" : "VEC3", "max" : [45.4808158874512, 52.6903190612793, 51.6545104980469], "min" : [-47.2968940734863, -53.3075942993164, -67.8668746948242]}, {"bufferView" : 5, "byteOffset" : 12, "componentType" : 5126, "count" : 4785, "type" : "VEC3", "max" : [0.999828100204468, 0.999853551387787, 0.999460816383362], "min" : [-0.999794125556946, -0.999607503414154, -0.999552249908447]}, {"bufferView" : 5, "byteOffset" : 24, "componentType" : 5126, "count" : 4785, "type" : "VEC2", "max" : [0.772504091262817, 0.460716724395752], "min" : [0.000704749953001738, 0.000571876764297485]}, {"bufferView" : 5, "byteOffset" : 32, "componentType" : 5126, "count" : 4785, "type" : "VEC4", "max" : [1, 1, 1, 1], "min" : [1, 1, 1, 1]}], "asset" : {"generator" : "Aspose.3D 19.11", "version" : "2.0"}, "buffers" : [{"uri" : "buffer.bin", "byteLength" : 1056812}], "bufferViews" : [{"buffer" : 0, "byteOffset" : 0, "byteLength" : 47928, "target" : 34963}, {"buffer" : 0, "byteOffset" : 47932, "byteLength" : 128, "byteStride" : 32, "target" : 34962}, {"buffer" : 0, "byteOffset" : 48064, "byteLength" : 35923}, {"buffer" : 0, "byteOffset" : 83988, "byteLength" : 35915}, {"buffer" : 0, "byteOffset" : 119904, "byteLength" : 5375}, {"buffer" : 0, "byteOffset" : 125280, "byteLength" : 229680, "byteStride" : 48, "target" : 34962}, {"buffer" : 0, "byteOffset" : 354964, "byteLength" : 79013}, {"buffer" : 0, "byteOffset" : 433980, "byteLength" : 322431}, {"buffer" : 0, "byteOffset" : 756412, "byteLength" : 79748}, {"buffer" : 0, "byteOffset" : 836164, "byteLength" : 220644}], "images" : [{"mimeType" : "image/png", "bufferView" : 2}, {"mimeType" : "image/png", "bufferView" : 3}, {"mimeType" : "image/png", "bufferView" : 4}, {"mimeType" : "image/png", "bufferView" : 6}, {"mimeType" : "image/png", "bufferView" : 7}, {"mimeType" : "image/png", "bufferView" : 8}, {"mimeType" : "image/png", "bufferView" : 9}], "materials" : [{"extensions" : {"KHR_materials_pbrSpecularGlossiness" : {"diffuseFactor" : [1, 1, 1, 1], "diffuseTexture" : {"index" : 0, "texCoord" : 0}, "specularFactor" : [0, 0, 0], "glossinessFactor" : 0}}, "pbrMetallicRoughness" : {"baseColorFactor" : [1, 1, 1, 1], "baseColorTexture" : {"index" : 1, "texCoord" : 0}, "metallicFactor" : 1, "roughnessFactor" : 1, "metallicRoughnessTexture" : {"index" : 2, "texCoord" : 0}}, "emissiveFactor" : [0, 0, 0], "alphaMode" : "OPAQUE", "doubleSided" : true}, {"extensions" : {"KHR_materials_pbrSpecularGlossiness" : {"diffuseFactor" : [1, 1, 1, 1], "diffuseTexture" : {"index" : 3, "texCoord" : 0}, "specularFactor" : [1, 1, 1], "glossinessFactor" : 1, "specularGlossinessTexture" : {"index" : 4, "texCoord" : 0, "scale" : 1}}}, "pbrMetallicRoughness" : {"baseColorFactor" : [1, 1, 1, 1], "baseColorTexture" : {"index" : 5, "texCoord" : 0}, "metallicFactor" : 1, "roughnessFactor" : 1, "metallicRoughnessTexture" : {"index" : 6, "texCoord" : 0}}, "emissiveFactor" : [0, 0, 0], "alphaMode" : "OPAQUE", "doubleSided" : true}], "meshes" : [{"primitives" : [{"attributes" : {"POSITION" : 1, "NORMAL" : 2, "TEXCOORD_0" : 3}, "indices" : 0, "material" : 0, "mode" : 4}]}, {"primitives" : [{"attributes" : {"POSITION" : 5, "NORMAL" : 6, "TEXCOORD_0" : 7, "COLOR" : 8}, "indices" : 4, "material" : 1, "mode" : 4}]}], "nodes" : [{"matrix" : [1.41600000858307, 0, 0, 0, 0, 0.672000050544739, 0, 0, 0, 0, 0.00100000004749745, 0, 0, 0, 0, 1], "mesh" : 0}, {"matrix" : [4.53642116128786E-10, -5.47631077024548E-10, -0.00483028376844479, 0, 0.00390774227195876, 0.00283922563075076, -1.77940437117071E-10, 0, 0.0028392248076207, -0.00390774151851072, 8.23332790344788E-10, 0, -0.12441597878933, -0.0611384622752666, 0.972854197025299, 1], "mesh" : 1, "name" : "node_id57"}, {"children" : [0, 1], "name" : "root"}], "samplers" : [{"magFilter" : 9728, "minFilter" : 9984, "wrapS" : 10497, "wrapT" : 10497}, {"magFilter" : 9728, "minFilter" : 9984, "wrapS" : 10497, "wrapT" : 10497}, {"magFilter" : 9728, "minFilter" : 9985, "wrapS" : 10497, "wrapT" : 10497}, {"magFilter" : 9728, "minFilter" : 9985, "wrapS" : 10497, "wrapT" : 10497}, {"magFilter" : 9728, "minFilter" : 9985, "wrapS" : 10497, "wrapT" : 10497}, {"magFilter" : 9728, "minFilter" : 9985, "wrapS" : 10497, "wrapT" : 10497}, {"magFilter" : 9728, "minFilter" : 9985, "wrapS" : 10497, "wrapT" : 10497}], "scene" : 0, "scenes" : [{"nodes" : [2]}], "textures" : [{"sampler" : 0, "source" : 0}, {"sampler" : 1, "source" : 1}, {"sampler" : 2, "source" : 2}, {"sampler" : 3, "source" : 3}, {"sampler" : 4, "source" : 4}, {"sampler" : 5, "source" : 5}, {"sampler" : 6, "source" : 6}]}